# File created by Blade
# Date/Time:  Tue Jan 27 19:58:31 2015
# Frame Rate: 120.000 fps
#------------------------------------------------------
:FULLY-SPECIFIED
:DEGREES
1936
root 6.045402 33.239915 2.637834 -8.253510 -14.078538 -18.866086
Spine 12.261183 13.709696 11.850706
Head 10.955184 -15.117641 10.984834
LeftShoulder -15.293400 1.826028 32.612640
LeftArm -6.078686 -7.229404 -81.703735
LeftForeArm -19.402272 -0.000000 122.674425
LeftHand 9.432679 -0.000000 -18.740825
LeftHandThumb1 -26.253704 0.000000 33.147579
RightShoulder -19.434581 -18.319719 -19.279057
RightArm 9.405350 -6.399193 78.572973
RightForeArm -15.928311 -0.000000 14.345828
RightHand 18.791110 -0.000000 7.129576
RightHandThumb1 -24.326973 -0.000000 -32.862282
LeftUpLeg 17.617912 6.547341 11.092167
LeftLeg 1.036081 -0.000000 -0.000000
LeftFoot -21.367207 18.199097 -16.849620
LeftToeBase 20.832864 -0.000000 -0.000000
RightUpLeg -72.747765 -14.444933 10.447087
RightLeg 101.258509 -0.000000 -0.000000
RightFoot 29.009938 -28.958110 22.184454
RightToeBase 8.351046 -0.000000 -0.000000
1937
root 6.029466 33.268321 2.640866 -8.211438 -13.841041 -19.222768
Spine 12.235356 13.483580 12.185730
Head 10.734359 -15.231946 11.155323
LeftShoulder -15.245424 1.836524 32.628537
LeftArm -6.096788 -7.157843 -81.678816
LeftForeArm -19.556019 -0.000000 122.528978
LeftHand 9.548962 -0.000000 -18.726634
LeftHandThumb1 -26.253704 0.000000 33.147579
RightShoulder -19.441522 -18.323636 -19.233708
RightArm 9.459519 -6.398026 78.448146
RightForeArm -15.763612 0.000000 14.403195
RightHand 18.770133 -0.000000 6.956690
RightHandThumb1 -24.326973 -0.000000 -32.862282
LeftUpLeg 17.667447 6.312503 11.455457
LeftLeg 0.880523 -0.000000 -0.000000
LeftFoot -21.322817 18.143131 -16.857863
LeftToeBase 21.032122 -0.000000 -0.000000
RightUpLeg -72.103656 -13.410587 8.261966
RightLeg 101.695834 -0.000000 -0.000000
RightFoot 28.847938 -29.077288 22.266635
RightToeBase 9.573074 -0.000000 -0.000000
1938
root 6.013303 33.295297 2.643572 -8.149810 -13.616060 -19.553362
Spine 12.167257 13.282669 12.483081
Head 10.559105 -15.356044 11.311942
LeftShoulder -15.181931 1.882645 32.635947
LeftArm -6.078609 -7.131675 -81.662916
LeftForeArm -19.680875 -0.000000 122.370278
LeftHand 9.688048 -0.000000 -18.889651
LeftHandThumb1 -26.253704 0.000000 33.147579
RightShoulder -19.461732 -18.373562 -19.177712
RightArm 9.567252 -6.304593 78.353735
RightForeArm -15.775089 -0.000000 14.435996
RightHand 18.832041 -0.000000 7.208445
RightHandThumb1 -24.326973 -0.000000 -32.862282
LeftUpLeg 17.661856 6.312245 11.881773
LeftLeg 0.786804 -0.000000 -0.000000
LeftFoot -21.179965 17.841359 -16.773077
LeftToeBase 20.937003 -0.000000 -0.000000
RightUpLeg -71.546398 -12.369525 6.136783
RightLeg 102.134090 -0.000000 -0.000000
RightFoot 28.425415 -29.393468 22.588653
RightToeBase 11.170540 -0.000000 -0.000000
1939
root 6.004845 33.319612 2.650820 -8.122021 -13.386724 -19.832420
Spine 12.123669 13.083344 12.764626
Head 10.391119 -15.465898 11.392941
LeftShoulder -15.114477 1.864968 32.621470
LeftArm -6.113875 -7.110440 -81.621099
LeftForeArm -19.751256 -0.000000 122.216130
LeftHand 9.795277 0.000000 -18.847413
LeftHandThumb1 -26.253704 0.000000 33.147579
RightShoulder -19.521588 -18.391740 -19.121151
RightArm 9.673053 -6.265228 78.225016
RightForeArm -15.653613 -0.000000 14.469330
RightHand 18.722104 -0.000000 7.045134
RightHandThumb1 -24.326973 -0.000000 -32.862282
LeftUpLeg 17.671032 6.465033 12.308895
LeftLeg 0.735132 -0.000000 -0.000000
LeftFoot -21.053132 17.228145 -16.859963
LeftToeBase 21.025065 -0.000000 -0.000000
RightUpLeg -71.030777 -11.398335 4.016427
RightLeg 102.608430 -0.000000 -0.000000
RightFoot 28.145108 -29.569409 22.701625
RightToeBase 12.043230 -0.000000 -0.000000
1940
root 5.991984 33.344855 2.652492 -8.045555 -13.138933 -20.147607
Spine 12.019688 12.862999 13.062178
Head 10.303779 -15.545334 11.439921
LeftShoulder -15.024755 1.829395 32.602941
LeftArm -6.183563 -7.137886 -81.569179
LeftForeArm -19.837988 -0.000000 122.074989
LeftHand 9.848494 -0.000000 -18.933640
LeftHandThumb1 -26.253704 0.000000 33.147579
RightShoulder -19.575954 -18.416655 -19.058178
RightArm 9.783952 -6.275749 78.104071
RightForeArm -15.614696 -0.000000 14.479743
RightHand 18.747602 -0.000000 6.824629
RightHandThumb1 -24.326973 -0.000000 -32.862282
LeftUpLeg 17.629545 6.411709 12.678237
LeftLeg 0.637946 -0.000000 -0.000000
LeftFoot -20.952393 17.033099 -16.803703
LeftToeBase 21.048699 -0.000000 -0.000000
RightUpLeg -70.595840 -10.514298 2.025980
RightLeg 103.095820 -0.000000 -0.000000
RightFoot 27.670765 -29.908539 23.143466
RightToeBase 10.051889 -0.000000 -0.000000
1941
root 5.981837 33.369287 2.661562 -8.015974 -12.913202 -20.432867
Spine 11.940965 12.619109 13.345786
Head 10.258539 -15.575702 11.455070
LeftShoulder -14.937012 1.798728 32.577165
LeftArm -6.292940 -7.204962 -81.518335
LeftForeArm -19.901112 -0.000000 121.941792
LeftHand 9.903519 -0.000000 -18.970984
LeftHandThumb1 -26.253704 0.000000 33.147579
RightShoulder -19.611289 -18.446980 -19.002154
RightArm 9.910936 -6.224209 77.973897
RightForeArm -15.652901 -0.000000 14.520577
RightHand 18.696759 -0.000000 6.943558
RightHandThumb1 -24.326973 -0.000000 -32.862282
LeftUpLeg 17.656862 6.433164 13.047641
LeftLeg 0.537323 -0.000000 -0.000000
LeftFoot -20.766814 16.722169 -16.676055
LeftToeBase 20.908973 -0.000000 -0.000000
RightUpLeg -70.145444 -9.561240 0.063772
RightLeg 103.634727 -0.000000 -0.000000
RightFoot 28.134565 -29.536604 22.310959
RightToeBase 10.106940 -0.000000 -0.000000
1942
root 5.975929 33.391853 2.674149 -8.009014 -12.698157 -20.656221
Spine 11.855569 12.354838 13.569053
Head 10.282895 -15.605763 11.426488
LeftShoulder -14.872393 1.771803 32.555151
LeftArm -6.413421 -7.282280 -81.484268
LeftForeArm -19.931888 -0.000000 121.772982
LeftHand 9.985079 -0.000000 -18.996781
LeftHandThumb1 -26.253704 0.000000 33.147579
RightShoulder -19.608785 -18.422681 -18.982122
RightArm 9.988986 -6.213797 77.861739
RightForeArm -15.625861 -0.000000 14.530855
RightHand 18.855031 -0.000000 7.127984
RightHandThumb1 -24.326973 -0.000000 -32.862282
LeftUpLeg 17.688610 6.467387 13.369867
LeftLeg 0.449978 -0.000000 -0.000000
LeftFoot -20.712961 16.271502 -16.913081
LeftToeBase 21.222562 -0.000000 -0.000000
RightUpLeg -69.744490 -8.680010 -1.886261
RightLeg 104.229508 -0.000000 -0.000000
RightFoot 28.317127 -29.414850 22.003935
RightToeBase 8.990795 -0.000000 -0.000000
1943
root 5.970928 33.416276 2.686370 -8.007654 -12.474670 -20.938092
Spine 11.777257 12.039231 13.892397
Head 10.368802 -15.613509 11.287513
LeftShoulder -14.804351 1.717067 32.499816
LeftArm -6.574752 -7.384087 -81.483457
LeftForeArm -20.020146 -0.000000 121.567462
LeftHand 10.090931 -0.000000 -19.132793
LeftHandThumb1 -26.253704 0.000000 33.147579
RightShoulder -19.577337 -18.361634 -19.016983
RightArm 10.044071 -6.216797 77.755460
RightForeArm -15.711853 -0.000000 14.536152
RightHand 18.712917 0.000000 7.104310
RightHandThumb1 -24.326973 -0.000000 -32.862282
LeftUpLeg 17.713579 6.541875 13.760439
LeftLeg 0.418158 -0.000000 -0.000000
LeftFoot -20.655376 15.772933 -17.036172
LeftToeBase 21.496660 -0.000000 -0.000000
RightUpLeg -69.339438 -7.882046 -3.683498
RightLeg 104.838938 -0.000000 -0.000000
RightFoot 28.648413 -29.212544 21.471182
RightToeBase 11.067295 -0.000000 -0.000000
1944
root 5.967342 33.440037 2.703705 -8.053780 -12.277136 -21.212799
Spine 11.743175 11.732623 14.235711
Head 10.479396 -15.598132 11.122373
LeftShoulder -14.744198 1.637866 32.467360
LeftArm -6.738908 -7.494392 -81.542677
LeftForeArm -20.046795 -0.000000 121.316261
LeftHand 10.239036 -0.000000 -19.070462
LeftHandThumb1 -26.253704 0.000000 33.147579
RightShoulder -19.565169 -18.323759 -19.056986
RightArm 10.127061 -6.222494 77.651492
RightForeArm -15.824510 -0.000000 14.541939
RightHand 18.709690 -0.000000 7.000562
RightHandThumb1 -24.326973 -0.000000 -32.862282
LeftUpLeg 17.832766 6.596914 14.131444
LeftLeg 0.291482 -0.000000 -0.000000
LeftFoot -20.533102 15.438288 -17.082634
LeftToeBase 21.530572 -0.000000 -0.000000
RightUpLeg -68.900663 -7.100429 -5.416084
RightLeg 105.483457 -0.000000 -0.000000
RightFoot 28.596390 -29.194443 21.433345
RightToeBase 11.581843 -0.000000 -0.000000
1945
root 5.963265 33.464605 2.724823 -8.121585 -12.073100 -21.472042
Spine 11.711264 11.420085 14.558452
Head 10.639268 -15.569423 10.958802
LeftShoulder -14.688501 1.606760 32.436749
LeftArm -6.839890 -7.628114 -81.656796
LeftForeArm -20.109215 -0.000000 121.021381
LeftHand 10.369258 -0.000000 -19.198352
LeftHandThumb1 -26.253704 0.000000 33.147579
RightShoulder -19.553865 -18.297275 -19.072063
RightArm 10.198529 -6.202913 77.540924
RightForeArm -15.806710 0.000000 14.547264
RightHand 18.807816 0.000000 7.136589
RightHandThumb1 -24.326973 -0.000000 -32.862282
LeftUpLeg 17.976353 6.717614 14.513065
LeftLeg 0.166714 -0.000000 -0.000000
LeftFoot -20.393975 15.017950 -17.130059
LeftToeBase 21.734162 -0.000000 -0.000000
RightUpLeg -68.458544 -6.411772 -7.032151
RightLeg 106.160918 -0.000000 -0.000000
RightFoot 28.938611 -28.976640 20.721668
RightToeBase 10.221830 -0.000000 -0.000000
1946
root 5.965056 33.487860 2.742600 -8.147604 -11.852014 -21.710238
Spine 11.621705 11.091855 14.863499
Head 10.825842 -15.533317 10.763277
LeftShoulder -14.667353 1.612451 32.390541
LeftArm -6.882608 -7.745304 -81.820027
LeftForeArm -20.225150 -0.000000 120.690021
LeftHand 10.581513 0.000000 -19.246501
LeftHandThumb1 -26.253704 0.000000 33.147579
RightShoulder -19.534953 -18.256351 -19.107179
RightArm 10.239002 -6.149245 77.446047
RightForeArm -15.720751 0.000000 14.589873
RightHand 18.769117 -0.000000 7.188802
RightHandThumb1 -24.326973 -0.000000 -32.862282
LeftUpLeg 18.036251 6.834197 14.854016
LeftLeg 0.092273 -0.000000 -0.000000
LeftFoot -20.296855 14.556782 -17.247610
LeftToeBase 22.049297 -0.000000 -0.000000
RightUpLeg -68.080286 -5.816215 -8.545271
RightLeg 106.864739 -0.000000 -0.000000
RightFoot 29.059689 -28.822219 20.303001
RightToeBase 9.773798 -0.000000 -0.000000
